<?xml version="1.0" standalone="no"?><svg xmlns="http://www.w3.org/2000/svg" viewBox="0 0 1440 320"><path fill="#f3f4f5" fill-opacity="1" d="M0,0L21.8,16C43.6,32,87,64,131,80C174.5,96,218,96,262,117.3C305.5,139,349,181,393,170.7C436.4,160,480,96,524,58.7C567.3,21,611,11,655,58.7C698.2,107,742,213,785,266.7C829.1,320,873,320,916,309.3C960,299,1004,277,1047,261.3C1090.9,245,1135,235,1178,213.3C1221.8,192,1265,160,1309,165.3C1352.7,171,1396,213,1418,234.7L1440,256L1440,320L1418.2,320C1396.4,320,1353,320,1309,320C1265.5,320,1222,320,1178,320C1134.5,320,1091,320,1047,320C1003.6,320,960,320,916,320C872.7,320,829,320,785,320C741.8,320,698,320,655,320C610.9,320,567,320,524,320C480,320,436,320,393,320C349.1,320,305,320,262,320C218.2,320,175,320,131,320C87.3,320,44,320,22,320L0,320Z"></path></svg>